# xmcd
#
# Track frame offsets: 
#        150
#        15648
#        29388
#        42789
#        56688
#        70167
#        83195
#        95723
#        109630
#        124216
#        139720
#        151958
#        166126
#        181925
#        197656
#        213206
#        226923
#        241165
#        256892
#        271539
#        286327
#        299510
#        313846
#        328216
#
# Disc length: 4556 seconds
#
# Revision: 2
# Processed by: cddbd v1.5.2PL0 Copyright (c) Steve Scherf et al.
# Submitted via: ExactAudioCopy v0.99pb4
#
DISCID=5111ca18
DTITLE=Mildred Bailey - Mrs. Swing
DYEAR=2005
DGENRE=Jazz Vocals
TTITLE0=What Kind O' Man Is You
TTITLE1=Is That Religion
TTITLE2=Harlem Lullaby
TTITLE3=Lazy Bones
TTITLE4=But I Can't Make A Man
TTITLE5=Doin' The Uptown Lowdown
TTITLE6=Heat Wave
TTITLE7=Junk Man
TTITLE8=Ol' Pappy
TTITLE9=Emaline
TTITLE10=I'd Love To Take Orders From You
TTITLE11=I'd Rather Listen To Your Eyes
TTITLE12=Someday Sweetheart
TTITLE13=When Day Is Done
TTITLE14=Willow Tree
TTITLE15=Honeysuckle Rose
TTITLE16=Squeeze Me
TTITLE17=Downhearted Blues
TTITLE18=A Porter's Love Song To A Chambermaid
TTITLE19=Picture Me Without You
TTITLE20=Now That Summer Is Gone
TTITLE21=For Sentimental Reasons
TTITLE22=It's Love I'm After
TTITLE23='Long About Midnight
EXTD=YEAR: 1936
EXTT0=
EXTT1=
EXTT2=
EXTT3=
EXTT4=
EXTT5=
EXTT6=
EXTT7=
EXTT8=
EXTT9=
EXTT10=
EXTT11=
EXTT12=
EXTT13=
EXTT14=
EXTT15=
EXTT16=
EXTT17=
EXTT18=
EXTT19=
EXTT20=
EXTT21=
EXTT22=
EXTT23=
PLAYORDER=
